<svg xmlns:dc="http://purl.org/dc/elements/1.1/" xmlns:cc="http://creativecommons.org/ns#" xmlns:rdf="http://www.w3.org/1999/02/22-rdf-syntax-ns#" xmlns:svg="http://www.w3.org/2000/svg" xmlns="http://www.w3.org/2000/svg" version="1.1" width="89.9" height="20" viewBox="-43 -38 90.971887 20.266667"><style>.style0{fill:	#545454;}.style1{font-size:	67.17171478px;text-align:	start;line-height:	125%;letter-spacing:	0px;word-spacing:	0px;writing-mode:	lr-tb;text-anchor:	start;fill:	#545454;font-family:	Bumbastika;-inkscape-font-specification:	Bumbastika;}</style><metadata><rdf:RDF><cc:Work rdf:about=""><dc:format>image/svg+xml</dc:format><dc:type rdf:resource="http://purl.org/dc/dcmitype/StillImage"/><dc:title/></cc:Work></rdf:RDF></metadata><defs><defs/><defs/><defs/><defs/><defs/><defs/><defs/><defs/><defs/><defs/><defs/><defs/><defs/></defs><g transform="matrix(0.25,0,0,0.25,-39.708351,-39.505785)" class="style0"><g class="style0"><path d="m 19.4 6 -1.1 0.2 -0.3 0.2 c -0.4 4.6 1.2 8.6 4.6 11.8 l 1.5 1.4 C 19.8 16.9 15.2 15.1 10.2 14.1 6.1 13.2 2 13.6 -2 15.1 c -2 0.7 -2.2 2.1 -0.6 4.1 2.6 3.2 5.9 5.1 10 5.6 -6.7 -0.4 -12.1 0.2 -16.1 1.9 -3.2 1.3 -4.8 2.8 -4.8 4.4 1.2 1 3.5 1.6 6.7 1.8 3.5 0.2 6.5 -0.3 8.9 -1.4 -3.6 1.7 -6.8 3.9 -9.7 6.5 -2.5 2.2 -3.3 4.8 -2.5 7.8 1.8 0.6 3.6 0.6 5.4 0.1 0.9 -0.2 1.8 -0.6 2.6 -1 -1.9 3.6 -3.1 8 -3.6 13.2 -0.4 4.6 0.2 8.7 1.7 12.5 1.7 4.2 4.5 7.4 8.4 9.6 9 5.1 18.8 7.5 29.5 7 9.1 -0.4 17.6 -2.7 25.6 -6.9 3.8 -2 6.7 -5.2 8.8 -9.5 1.8 -3.9 2.7 -8 2.7 -12.4 0 -4.3 -0.9 -8.4 -2.6 -12.3 -0.1 -0.2 -0.2 -0.3 -0.2 -0.5 1.4 1 2.9 1.8 4.6 2.5 l 2 -0 c 0.6 -0.6 0.5 -1.9 -0.1 -3.9 -1.6 -4.9 -5.1 -9.2 -10.5 -12.8 5 2.2 10.1 2.6 15.3 1 -0.6 -2.1 -2.1 -3.7 -4.6 -4.9 -5.1 -2.5 -10.4 -3.3 -16 -2.4 3 -1 5.6 -2.6 7.6 -5.1 2.4 -2.9 1.8 -5.1 -1.9 -6.3 -1.6 -0.6 -4.2 -0.6 -7.8 -0.1 -5.1 0.7 -9.6 2.4 -13.5 5.3 2.3 -2.4 3.6 -5.2 3.9 -8.5 C 47.5 6.7 46.1 5.6 42.7 7.1 37.8 9.4 34.4 13 32.6 18.1 31.1 13.8 29 10.8 26.2 9.1 23.2 7.2 20.9 6.1 19.4 6 z m 6.1 23.9 c 0.8 -0 1.6 0.1 2.4 0.2 3.1 0.6 5.2 2.2 6.3 4.9 1.1 -2.6 3 -4.2 5.7 -4.7 3.5 -0.8 7.1 -0.1 10.7 1.9 2.9 1.7 5.6 4.2 8 7.3 2.4 3.1 3.9 6.3 4.5 9.7 0.8 4 0.2 7.4 -1.9 10.2 -0.4 0.6 -0.9 1.2 -1.4 1.7 -6.4 -0.7 -11.6 1.1 -15.8 5.5 -1.7 -0.2 -3.3 -0.6 -4.7 -1.3 -2.3 -1.1 -4 -2.8 -5 -5 -1.3 2.5 -3.2 4.2 -5.8 5.3 -2.5 1 -5.2 1.5 -8.3 1.3 C 18.3 66.7 16.4 66.4 14.6 65.8 12.9 65 11.4 64 10 63 7 60.7 4.9 58.2 3.8 55.5 3.6 54.3 3.5 53.1 3.7 51.8 c 0.5 -3.9 2.1 -7.8 5 -11.5 2.7 -3.6 6 -6.4 9.8 -8.5 1.5 -0.8 3 -1.3 4.5 -1.6 0.9 -0.2 1.7 -0.3 2.5 -0.3 z m 14.8 13.9 c -1.1 0 -2 0.8 -2.8 2.3 -0.7 1.3 -1.1 2.8 -1 4.7 0 1.8 0.4 3.3 1.2 4.6 0.8 1.5 1.8 2.1 2.9 2 1.1 -0 2.1 -0.7 2.9 -2 0.7 -1.3 0.9 -2.9 0.9 -4.7 C 44.3 48.8 43.9 47.2 43.1 45.8 42.3 44.5 41.4 43.8 40.3 43.8 z m -12.5 0.2 c -1.1 0 -2.1 0.7 -2.8 2.2 -0.7 1.3 -1.1 2.8 -1 4.7 0 1.8 0.4 3.3 1.2 4.6 0.8 1.5 1.8 2.1 2.9 2 1.1 -0 2.1 -0.7 2.8 -2.1 0.7 -1.3 1 -2.9 0.9 -4.7 -0 -1.9 -0.5 -3.4 -1.3 -4.8 -0.8 -1.4 -1.7 -2 -2.8 -2 z m 12.5 1.2 c 0.1 -0 0.2 -0 0.3 0 0.4 0 0.8 0.2 1.1 0.6 0.2 0.4 0.4 0.9 0.3 1.5 0 0.5 -0.2 0.9 -0.5 1.3 -0.3 0.4 -0.7 0.6 -1.1 0.6 C 40 49.2 39.6 49 39.3 48.6 l -0.3 -1.4 0.5 -1.4 c 0.2 -0.3 0.5 -0.5 0.8 -0.5 z m -12.5 0.2 c 0.1 -0 0.2 -0 0.3 0 0.4 0 0.7 0.2 1 0.6 0.2 0.4 0.4 0.9 0.3 1.5 0 0.5 -0.2 1 -0.5 1.4 -0.3 0.4 -0.7 0.6 -1.1 0.6 -0.4 -0 -0.7 -0.3 -1 -0.7 L 26.5 47.4 27 46 c 0.2 -0.3 0.5 -0.5 0.8 -0.5 z m 21.2 21.7 c 2.2 1.8 3 3.2 2.4 4.1 l -1.1 -1.3 c -1.9 1.6 -4.2 3.1 -6.8 4.3 -4 1.7 -8.2 2.4 -12.5 2.3 -2.9 -0.1 -5.8 -0.7 -8.6 -1.6 -1.7 -0.6 -3.1 -1.3 -4.3 -2.1 l -1.9 -1.6 c 2.2 1.1 4.2 2 6.2 2.6 4.5 1.6 9.1 2 13.7 1.2 2.5 -0.4 5 -1.1 7.4 -2.1 2.2 -1 4.3 -2.3 6.2 -3.8 l -0.8 -1 0.1 -1 z" class="style0"/><text x="97.1" y="69" xml:space="preserve" class="style1"><tspan x="97.1" y="69">FCP</tspan></text></g></g></svg>