<svg xmlns="http://www.w3.org/2000/svg" version="1.1" width="89.900002" height="20" viewBox="-43 -38 90.971887 20.266667">
  <path d="m 48.048906,-27.864623 c -0.056,-2.384588 -0.251915,-4.438921 -0.587752,-6.163005 -0.134362,-0.246284 -0.352672,-0.447799 -0.654925,-0.604545 -0.156753,-0.06716 -0.436635,-0.179113 -0.839645,-0.335859 -0.25751,-0.08955 -1.192315,-0.363834 -2.80442,-0.822854 -0.481413,-0.05596 -1.192313,-0.145524 -2.132702,-0.268687 -1.220298,-0.03357 -2.440583,-0.05036 -3.660858,-0.05038 -3.537718,1.4e-5 -6.68359,0.156748 -9.437625,0.470202 -0.593352,2.742855 -0.890025,5.519283 -0.890025,8.329293 0,2.810019 0.296673,5.586447 0.890025,8.329292 1.858412,0.246293 4.254203,0.408624 7.187372,0.486995 -0.100765,-2.261449 -0.16234,-4.813972 -0.184722,-7.657575 l 5.138637,0 c 0.223893,4e-6 1.265053,-0.08396 3.123483,-0.251894 1.085927,-0.100754 2.110295,-0.291073 3.073107,-0.57096 0.492573,-0.145534 0.97397,-0.31906 1.444193,-0.520581 0.134322,-0.08956 0.246275,-0.212705 0.335857,-0.369444 m -7.892677,-0.755682 -5.239393,0 c -7e-6,-0.839639 0.0112,-1.679285 0.03358,-2.518939 l 0.06717,-2.502147 5.021085,0 c 0.07835,1.959185 0.117537,3.632878 0.11755,5.021086 m -14.833405,7.926262 c 0.246278,-1.242677 0.419803,-2.720453 0.520583,-4.433333 -2.619715,0.08957 -5.23941,0.139944 -7.859093,0.151136 -0.0224,1.309851 -0.05599,2.619697 -0.100757,3.929546 -0.839658,0.01119 -1.679303,0.01679 -2.518938,0.01679 -0.839657,-1e-6 -1.679302,-0.0056 -2.51894,-0.01679 -0.06718,-2.093518 -0.100765,-4.187034 -0.100757,-6.280555 -8e-6,-2.093512 0.03358,-4.192626 0.100757,-6.297349 1.690478,-0.02238 3.380965,-0.02238 5.071465,0 0.04477,1.309859 0.07835,2.625303 0.100757,3.946339 2.619681,0.0224 5.228181,0.05598 7.825506,0.100757 -0.06719,-1.54494 -0.24072,-3.022717 -0.520583,-4.433333 -0.21273,-0.347042 -0.68853,-0.643716 -1.427397,-0.890025 -0.201535,-0.06716 -0.37506,-0.134331 -0.520583,-0.201515 -0.660537,-0.201502 -1.449805,-0.41981 -2.367802,-0.654925 -2.227875,-0.201501 -4.886753,-0.330247 -7.97664,-0.386237 l -1.696085,0.167929 c -0.503795,0.0448 -1.063558,0.117564 -1.6792955,0.218308 -0.1567375,0.0224 -0.565365,0.123162 -1.2258825,0.302273 -0.9851875,0.2687 -1.729675,0.526191 -2.23346,0.772475 -0.38064,0.190332 -0.64373,0.419835 -0.7892675,0.68851 -0.35825,2.205481 -0.5373725,4.422145 -0.5373725,6.65 0,2.216669 0.1791225,4.427736 0.5373725,6.633206 0.1567325,0.347053 0.531775,0.626934 1.125125,0.839647 1.1755025,0.425418 2.216665,0.738886 3.123485,0.940404 0.5933455,0.13434 1.4106005,0.25189 2.4517675,0.352652 0.347048,0.03358 1.270658,0.05038 2.770835,0.05038 1.6345,-3e-6 2.563708,-0.0056 2.787625,-0.01679 0.66051,-0.03359 1.774438,-0.162336 3.341793,-0.386238 0.86202,-0.123151 2.015135,-0.492595 3.459345,-1.108333 0.391814,-0.167931 0.677292,-0.386239 0.856437,-0.654924 M 5.121194,-33.322325 4.8860915,-34.531416 c -0.078387,-0.403018 -0.1679475,-0.806047 -0.268685,-1.209091 -3.20187,-0.324649 -6.39812,-0.486981 -9.5887625,-0.486995 -3.20186,1.4e-5 -6.39811,0.162346 -9.588763,0.486995 -0.582155,2.776442 -0.873233,5.569663 -0.873233,8.379672 0,2.810019 0.291078,5.60324 0.873233,8.379671 1.84722,0.246293 4.248605,0.408624 7.2041655,0.486995 -0.100765,-2.250254 -0.1623375,-4.780386 -0.1847225,-7.590404 l 3.9295475,0 c 1.29864,4e-6 2.608485,-0.0056 3.929545,-0.01679 0.011175,-0.828447 0.011175,-1.662495 0,-2.502147 l -7.875885,-0.01679 c -7.5e-6,-1.26506 0.0056,-2.104705 0.0168,-2.518939 l 0.067172,-2.502147 c 4.83635,-0.05597 9.03458,0.05039 12.5946975,0.319066 m -39.979552,-4.683461 -0.275,0.05 -0.075,0.05 c -0.1,1.15 0.299999,2.15 1.15,2.95 l 0.375,0.35 c -1.075001,-0.675 -2.225001,-1.125 -3.475001,-1.375 -1.024999,-0.225 -2.049999,-0.125 -3.049999,0.25 -0.5,0.175 -0.55,0.525 -0.15,1.025 0.65,0.8 1.475,1.275 2.5,1.4 -1.675,-0.1 -3.025,0.05 -4.025,0.475 -0.8,0.325 -1.2,0.7 -1.2,1.1 0.299999,0.25 0.875,0.4 1.674999,0.45 0.875,0.05 1.625,-0.075 2.225001,-0.35 -0.9,0.425 -1.700001,0.975 -2.425,1.625 -0.625,0.55 -0.825,1.2 -0.625,1.95 0.45,0.15 0.9,0.15 1.35,0.025 0.225,-0.05 0.45,-0.15 0.65,-0.25 -0.475,0.9 -0.775,2 -0.9,3.3 -0.1,1.15 0.05,2.175 0.425,3.125 0.424999,1.05 1.125,1.85 2.1,2.4 2.25,1.275 4.7,1.875 7.375,1.75 2.275,-0.1 4.4,-0.675 6.4,-1.725 0.95,-0.5 1.675,-1.3 2.2,-2.375 0.45,-0.975 0.675,-2 0.675,-3.1 0,-1.075 -0.225,-2.1 -0.65,-3.075 -0.025,-0.05 -0.05,-0.075 -0.05,-0.125 0.35,0.25 0.725,0.45 1.15,0.625 l 0.5,0 c 0.149999,-0.15 0.125,-0.475 -0.025,-0.975 -0.4,-1.225 -1.275,-2.3 -2.625,-3.2 1.25,0.55 2.525,0.65 3.825,0.25 -0.15,-0.525 -0.525,-0.925 -1.15,-1.225 -1.275,-0.625 -2.6,-0.825 -4,-0.6 0.75,-0.25 1.4,-0.65 1.9,-1.275 0.6,-0.725 0.45,-1.275 -0.475,-1.575 -0.4,-0.15 -1.050001,-0.15 -1.95,-0.025 -1.275,0.175 -2.4,0.6 -3.375,1.325 0.575,-0.6 0.899999,-1.3 0.975,-2.125 0.075,-0.925 -0.275,-1.2 -1.125,-0.825 -1.225,0.575 -2.075,1.475 -2.525,2.75 -0.375,-1.075 -0.9,-1.825 -1.6,-2.25 -0.75,-0.475 -1.325,-0.75 -1.7,-0.775 z m 1.525,5.975 c 0.2,0 0.4,0.025 0.6,0.05 0.775,0.15 1.3,0.55 1.575,1.225 0.275,-0.65 0.75,-1.05 1.425,-1.175 0.875,-0.2 1.775,-0.025 2.675,0.475 0.725,0.425 1.4,1.05 2,1.825 0.6,0.775 0.975,1.575 1.125,2.425 0.2,1 0.05,1.85 -0.475,2.55 -0.1,0.15 -0.225,0.3 -0.35,0.425 -1.600001,-0.175 -2.9,0.275 -3.95,1.375 -0.425,-0.05 -0.825,-0.15 -1.175,-0.325 -0.575,-0.275 -1,-0.7 -1.25,-1.25 -0.325,0.625 -0.8,1.05 -1.45,1.325 -0.625,0.25 -1.3,0.375 -2.075001,0.325 -0.475,-0.05 -0.95,-0.125 -1.399999,-0.275 -0.425,-0.2 -0.8,-0.45 -1.15,-0.7 -0.75,-0.575 -1.275,-1.2 -1.55,-1.875 -0.05,-0.3 -0.075,-0.6 -0.025,-0.925 0.125,-0.975 0.525,-1.95 1.25,-2.875 0.675,-0.9 1.5,-1.6 2.45,-2.125 0.375,-0.2 0.75,-0.325 1.125,-0.4 0.225,-0.05 0.425,-0.075 0.625,-0.075 z m 3.7,3.475 c -0.275,0 -0.5,0.2 -0.7,0.575 -0.175,0.325 -0.275,0.7 -0.25,1.175 0,0.45 0.1,0.825 0.3,1.15 0.2,0.375 0.45,0.525 0.725,0.5 0.275,0 0.525,-0.175 0.725,-0.5 0.175,-0.325 0.225,-0.725 0.225,-1.175 -0.025,-0.475 -0.125,-0.875 -0.325,-1.225 -0.2,-0.325 -0.425,-0.5 -0.7,-0.5 z m -3.125001,0.05 c -0.275,0 -0.525,0.175 -0.7,0.55 -0.175,0.325 -0.275,0.7 -0.25,1.175 0,0.45 0.1,0.825 0.3,1.15 0.2,0.375 0.45,0.525 0.725,0.5 0.275,0 0.525,-0.175 0.7,-0.525 0.175,-0.325 0.25,-0.725 0.225,-1.175 0,-0.475 -0.125,-0.85 -0.325,-1.2 -0.2,-0.35 -0.425,-0.5 -0.7,-0.5 z m 3.125,0.3 c 0.025,0 0.05,0 0.075,0 0.1,0 0.2,0.05 0.275,0.15 0.05,0.1 0.1,0.225 0.075,0.375 0,0.125 -0.05,0.225 -0.125,0.325 -0.075,0.1 -0.175,0.15 -0.275,0.15 -0.1,0 -0.2,-0.05 -0.275,-0.15 l -0.075,-0.35 0.125,-0.35 c 0.05,-0.075 0.125,-0.125 0.2,-0.125 z m -3.125,0.05 c 0.025,0 0.05,0 0.075,0 0.1,0 0.174999,0.05 0.25,0.15 0.05,0.1 0.1,0.225 0.075,0.375 0,0.125 -0.05,0.25 -0.125,0.35 -0.075,0.1 -0.175,0.15 -0.275,0.15 -0.1,0 -0.175,-0.075 -0.25,-0.175 l -0.075,-0.35 0.125,-0.35 c 0.05,-0.075 0.125,-0.125 0.2,-0.125 z m 5.3,5.425 c 0.55,0.45 0.75,0.8 0.6,1.025 l -0.274999,-0.325 c -0.475001,0.4 -1.05,0.775 -1.7,1.075 -1,0.425 -2.05,0.6 -3.125,0.575 -0.725,-0.025 -1.450001,-0.175 -2.15,-0.4 -0.425,-0.15 -0.775,-0.325 -1.075,-0.525 l -0.475001,-0.4 c 0.55,0.275 1.05,0.5 1.55,0.65 1.125,0.4 2.275,0.5 3.425,0.3 0.625,-0.1 1.25,-0.275 1.85,-0.525 0.55,-0.25 1.075,-0.575 1.55,-0.95 l -0.2,-0.25 0.025,-0.25 z" class="brand-logo-puffle" />
</svg>
