<?xml version="1.0" encoding="UTF-8" standalone="no"?>
<!-- Created with Inkscape (http://www.inkscape.org/) -->

<svg
   xmlns:dc="http://purl.org/dc/elements/1.1/"
   xmlns:cc="http://creativecommons.org/ns#"
   xmlns:rdf="http://www.w3.org/1999/02/22-rdf-syntax-ns#"
   xmlns:svg="http://www.w3.org/2000/svg"
   xmlns="http://www.w3.org/2000/svg"
   xmlns:sodipodi="http://sodipodi.sourceforge.net/DTD/sodipodi-0.dtd"
   xmlns:inkscape="http://www.inkscape.org/namespaces/inkscape"
   width="298.99789"
   height="404.1058"
   id="svg2"
   version="1.1"
   inkscape:version="0.48.4 r9939"
   sodipodi:docname="logo.svg">
  <defs
     id="defs4" />
  <sodipodi:namedview
     id="base"
     pagecolor="#ffffff"
     bordercolor="#666666"
     borderopacity="1.0"
     inkscape:pageopacity="0.0"
     inkscape:pageshadow="2"
     inkscape:zoom="1.4"
     inkscape:cx="71.106328"
     inkscape:cy="123.76963"
     inkscape:document-units="px"
     inkscape:current-layer="g3889"
     showgrid="false"
     inkscape:window-width="1920"
     inkscape:window-height="1029"
     inkscape:window-x="1280"
     inkscape:window-y="0"
     inkscape:window-maximized="1"
     fit-margin-top="0"
     fit-margin-left="0"
     fit-margin-right="0"
     fit-margin-bottom="0" />
  <metadata
     id="metadata7">
    <rdf:RDF>
      <cc:Work
         rdf:about="">
        <dc:format>image/svg+xml</dc:format>
        <dc:type
           rdf:resource="http://purl.org/dc/dcmitype/StillImage" />
        <dc:title></dc:title>
      </cc:Work>
    </rdf:RDF>
  </metadata>
  <g
     inkscape:label="Layer 1"
     inkscape:groupmode="layer"
     id="layer1"
     transform="translate(-103.5605,-296.33281)">
    <g
       id="g3893"
       transform="matrix(-0.96615837,-0.25794963,-0.25794963,0.96615837,644.23119,56.954595)">
      <path
         style="fill:#241f1c;fill-opacity:1;stroke:none"
         d="m 201.65583,424.53945 c 14.94448,4.96655 -1.83015,45.65316 6.9617,57.15541 -51.024,55.38002 -79.92819,81.79782 -94.31384,77.94178 -15.286162,-4.09743 -12.70053,-2.30722 -7.63977,-21.61327 5.59478,-21.34323 62.69975,-79.17649 94.99191,-113.48392 z"
         id="path3895"
         inkscape:connector-curvature="0"
         sodipodi:nodetypes="ccssc" />
      <path
         sodipodi:nodetypes="ccssc"
         inkscape:connector-curvature="0"
         id="path3897"
         d="m 198.90476,436.24158 c 14.94446,4.96653 -2.34579,32.26314 6.44606,43.76539 -75.81871,83.90036 -78.42079,79.03612 -94.83411,70.39473 -5.74535,-3.02484 5.6123,-14.93397 11.14167,-24.62215 10.93694,-19.16295 44.95419,-55.23056 77.24638,-89.53797 z"
         style="fill:#ffffff;fill-opacity:1;stroke:none" />
    </g>
    <g
       id="g3889">
      <path
         sodipodi:nodetypes="ccsc"
         inkscape:connector-curvature="0"
         id="rect3865"
         d="m 203.0844,420.96802 c 14.94448,4.96655 -3.25872,49.22459 5.53313,60.72684 -102.2264,110.95366 -112.057506,94.87335 -101.95361,56.32851 5.59476,-21.34323 64.12832,-82.74792 96.42048,-117.05535 z"
         style="fill:#241f1c;fill-opacity:1;stroke:none" />
      <path
         style="fill:#ffffff;fill-opacity:1;stroke:none"
         d="m 198.90476,433.38444 c 14.94446,4.96653 -2.34579,35.12028 6.44606,46.62253 -102.22641,110.95366 -93.79634,84.31744 -83.69244,45.77258 5.59478,-21.34324 44.95419,-58.0877 77.24638,-92.39511 z"
         id="path3887"
         inkscape:connector-curvature="0"
         sodipodi:nodetypes="ccsc" />
    </g>
    <path
       style="fill:#241f1c;fill-opacity:1;stroke:none"
       d="m 367.85712,535.2193 c 3.13614,93.0684 -12.63628,160.80077 -96.42856,165 -74.25335,3.72119 -107.56249,-39.44599 -96.42857,-165 4.679,-52.76375 13.41646,-91.25667 34.0107,-131.62143 14.84252,-29.09138 -6.30976,-76.23571 62.41787,-75.52143 57.00746,0.59248 52.05662,46.04145 60.18825,71.2757 19.24837,33.42561 34.35741,79.98994 36.24031,135.86716 z"
       inkscape:connector-curvature="0"
       sodipodi:nodetypes="sssascs" />
    <path
       sodipodi:nodetypes="sssssss"
       inkscape:connector-curvature="0"
       d="m 361.7962,533.70407 c 3.13614,93.0684 -6.07028,159.28554 -89.86256,163.48477 -74.25335,3.72119 -101.50158,-35.91045 -90.36766,-161.46446 5.45078,-61.46687 19.65038,-98.87571 44.78742,-116.62321 11.98391,-8.461 26.45373,6.83241 43.64659,6.83241 17.8194,0 33.64767,-15.25742 46.93725,-6.48484 26.42838,17.44563 42.81686,53.65372 44.85896,114.25533 z"
       style="fill:#ffffff;fill-opacity:1;stroke:none"
       id="path2996" />
    <path
       style="font-size:medium;font-style:normal;font-variant:normal;font-weight:normal;font-stretch:normal;text-indent:0;text-align:start;text-decoration:none;line-height:normal;letter-spacing:normal;word-spacing:normal;text-transform:none;direction:ltr;block-progression:tb;writing-mode:lr-tb;text-anchor:start;baseline-shift:baseline;color:#000000;fill:#ffcc00;fill-opacity:1;stroke:none;stroke-width:1px;marker:none;visibility:visible;display:inline;overflow:visible;enable-background:accumulate;font-family:Sans;-inkscape-font-specification:Sans"
       d="m 192.36056,296.33281 -0.9375,0.375 c 7.41258,18.97408 21.57476,25.26626 36.5625,30.09375 14.98774,4.82749 30.81343,8.2602 42.09375,21.46875 l 0.75,-0.65625 c -11.52446,-13.49443 -25.87199,-19.46884 -40.79473,-24.27539 -14.92274,-4.80655 -30.39043,-8.36194 -37.67402,-27.00586 z"
       id="path3006"
       inkscape:connector-curvature="0"
       sodipodi:nodetypes="ccsccsc" />
    <path
       style="font-size:medium;font-style:normal;font-variant:normal;font-weight:normal;font-stretch:normal;text-indent:0;text-align:start;text-decoration:none;line-height:normal;letter-spacing:normal;word-spacing:normal;text-transform:none;direction:ltr;block-progression:tb;writing-mode:lr-tb;text-anchor:start;baseline-shift:baseline;color:#000000;fill:#ffcc00;fill-opacity:1;stroke:none;stroke-width:1px;marker:none;visibility:visible;display:inline;overflow:visible;enable-background:accumulate;font-family:Sans;-inkscape-font-specification:Sans"
       d="m 194,313.5625 -0.875,0.46875 c 9.87846,18.55506 22.78184,21.96439 36.0625,23.46875 13.28066,1.50436 26.91851,1.20717 39.03125,12.375 l 0.6875,-0.75 C 256.51141,337.69708 243.48065,335.9737 230.2914,334.47969 217.10215,332.98568 203.73431,331.8468 194,313.5625 z"
       id="path3008"
       inkscape:connector-curvature="0"
       sodipodi:nodetypes="ccsccsc" />
    <path
       style="font-size:medium;font-style:normal;font-variant:normal;font-weight:normal;font-stretch:normal;text-indent:0;text-align:start;text-decoration:none;line-height:normal;letter-spacing:normal;word-spacing:normal;text-transform:none;direction:ltr;block-progression:tb;writing-mode:lr-tb;text-anchor:start;baseline-shift:baseline;color:#000000;fill:#ffcc00;fill-opacity:1;stroke:none;stroke-width:1px;marker:none;visibility:visible;display:inline;overflow:visible;enable-background:accumulate;font-family:Sans;-inkscape-font-specification:Sans"
       d="m 189.65625,331.5 -0.6875,0.71875 c 10.48601,10.10138 25.69095,11.35937 40.25,11.84375 14.55905,0.48438 28.4716,0.25057 36.53125,6.875 l 0.65625,-0.75 c -8.49896,-6.98551 -22.37984,-8.91463 -36.90371,-9.39784 -14.52387,-0.48321 -29.67938,0.50433 -39.84629,-9.28966 z"
       id="path3792"
       inkscape:connector-curvature="0"
       sodipodi:nodetypes="ccsccsc" />
    <path
       sodipodi:nodetypes="ccsccsc"
       inkscape:connector-curvature="0"
       id="path3798"
       d="m 352.47306,296.33281 0.9375,0.375 c -7.41258,18.97408 -21.57476,25.26626 -36.5625,30.09375 -14.98774,4.82749 -30.81343,8.2602 -42.09375,21.46875 l -0.75,-0.65625 c 11.52446,-13.49443 25.87199,-19.46884 40.79473,-24.27539 14.92274,-4.80655 30.39043,-8.36194 37.67402,-27.00586 z"
       style="font-size:medium;font-style:normal;font-variant:normal;font-weight:normal;font-stretch:normal;text-indent:0;text-align:start;text-decoration:none;line-height:normal;letter-spacing:normal;word-spacing:normal;text-transform:none;direction:ltr;block-progression:tb;writing-mode:lr-tb;text-anchor:start;baseline-shift:baseline;color:#000000;fill:#ffcc00;fill-opacity:1;stroke:none;stroke-width:1px;marker:none;visibility:visible;display:inline;overflow:visible;enable-background:accumulate;font-family:Sans;-inkscape-font-specification:Sans" />
    <path
       sodipodi:nodetypes="ccsccsc"
       inkscape:connector-curvature="0"
       id="path3800"
       d="m 350.83362,313.5625 0.875,0.46875 c -9.87846,18.55506 -22.78184,21.96439 -36.0625,23.46875 -13.28066,1.50436 -26.91851,1.20717 -39.03125,12.375 l -0.6875,-0.75 c 12.39484,-11.42792 25.4256,-13.1513 38.61485,-14.64531 13.18925,-1.49401 26.55709,-2.63289 36.2914,-20.91719 z"
       style="font-size:medium;font-style:normal;font-variant:normal;font-weight:normal;font-stretch:normal;text-indent:0;text-align:start;text-decoration:none;line-height:normal;letter-spacing:normal;word-spacing:normal;text-transform:none;direction:ltr;block-progression:tb;writing-mode:lr-tb;text-anchor:start;baseline-shift:baseline;color:#000000;fill:#ffcc00;fill-opacity:1;stroke:none;stroke-width:1px;marker:none;visibility:visible;display:inline;overflow:visible;enable-background:accumulate;font-family:Sans;-inkscape-font-specification:Sans" />
    <path
       sodipodi:nodetypes="ccsccsc"
       inkscape:connector-curvature="0"
       id="path3802"
       d="m 355.17737,331.5 0.6875,0.71875 c -10.48601,10.10138 -25.69095,11.35937 -40.25,11.84375 -14.55905,0.48438 -28.4716,0.25057 -36.53125,6.875 l -0.65625,-0.75 c 8.49896,-6.98551 22.37984,-8.91463 36.90371,-9.39784 14.52387,-0.48321 29.67938,0.50433 39.84629,-9.28966 z"
       style="font-size:medium;font-style:normal;font-variant:normal;font-weight:normal;font-stretch:normal;text-indent:0;text-align:start;text-decoration:none;line-height:normal;letter-spacing:normal;word-spacing:normal;text-transform:none;direction:ltr;block-progression:tb;writing-mode:lr-tb;text-anchor:start;baseline-shift:baseline;color:#000000;fill:#ffcc00;fill-opacity:1;stroke:none;stroke-width:1px;marker:none;visibility:visible;display:inline;overflow:visible;enable-background:accumulate;font-family:Sans;-inkscape-font-specification:Sans" />
    <path
       sodipodi:nodetypes="ccccc"
       inkscape:connector-curvature="0"
       id="path3826"
       d="m 260.94196,377.96875 c -0.62235,2.73175 7.17716,11.07531 9.96875,19.58482 l 1,0 c 2.98997,-9.15625 9.65077,-10.36607 10.0625,-19.52232 0.4056,-6.0765 -18.91128,-9.69028 -21.03125,-0.0625 z"
       style="font-size:medium;font-style:normal;font-variant:normal;font-weight:normal;font-stretch:normal;text-indent:0;text-align:start;text-decoration:none;line-height:normal;letter-spacing:normal;word-spacing:normal;text-transform:none;direction:ltr;block-progression:tb;writing-mode:lr-tb;text-anchor:start;baseline-shift:baseline;color:#000000;fill:#8d0000;fill-opacity:1;stroke:none;stroke-width:1px;marker:none;visibility:visible;display:inline;overflow:visible;enable-background:accumulate;font-family:Sans;-inkscape-font-specification:Sans" />
    <path
       style="font-size:medium;font-style:normal;font-variant:normal;font-weight:normal;font-stretch:normal;text-indent:0;text-align:start;text-decoration:none;line-height:normal;letter-spacing:normal;word-spacing:normal;text-transform:none;direction:ltr;block-progression:tb;writing-mode:lr-tb;text-anchor:start;baseline-shift:baseline;color:#000000;fill:#ff0000;fill-opacity:1;stroke:none;stroke-width:1px;marker:none;visibility:visible;display:inline;overflow:visible;enable-background:accumulate;font-family:Sans;-inkscape-font-specification:Sans"
       d="m 262.94196,375.96875 c -0.62235,2.73175 5.17716,13.07531 7.96875,21.58482 l 1,0 c 2.98997,-9.15625 7.65077,-12.36607 8.0625,-21.52232 0.4056,-6.0765 -14.91128,-9.69028 -17.03125,-0.0625 z"
       id="path3828"
       inkscape:connector-curvature="0"
       sodipodi:nodetypes="ccccc" />
    <path
       style="font-size:medium;font-style:normal;font-variant:normal;font-weight:normal;font-stretch:normal;text-indent:0;text-align:start;text-decoration:none;line-height:normal;letter-spacing:normal;word-spacing:normal;text-transform:none;direction:ltr;block-progression:tb;writing-mode:lr-tb;text-anchor:start;baseline-shift:baseline;color:#000000;fill:#ff3800;fill-opacity:1;stroke:none;stroke-width:1px;marker:none;visibility:visible;display:inline;overflow:visible;enable-background:accumulate;font-family:Sans;-inkscape-font-specification:Sans"
       d="m 266.94196,370.02232 c -0.62235,2.73175 1.17716,19.02174 3.96875,27.53125 l 1,0 c 2.98997,-9.15625 3.65077,-18.3125 4.0625,-27.46875 0.4056,-6.0765 -6.91128,-9.69028 -9.03125,-0.0625 z"
       id="path3820"
       inkscape:connector-curvature="0"
       sodipodi:nodetypes="ccccc" />
    <g
       id="g3852"
       transform="translate(8.75,-0.71428576)">
      <path
         sodipodi:nodetypes="cscsc"
         inkscape:connector-curvature="0"
         id="path3832"
         d="m 246.96429,360.26398 c -1.7473,0 0.0231,3.08035 -5.22322,3.08035 -6.10881,0 -3.9072,-3.08035 -6.12679,-3.08035 2.21886,0 0.0385,-3.08036 6.12679,-3.08036 5.22578,0 3.47585,3.08036 5.22322,3.08036 z"
         style="fill:#000000;fill-opacity:1;stroke:none"
         transform="matrix(1.0869565,0,0,1.0869565,-21.020963,-31.327303)" />
      <path
         sodipodi:nodetypes="cscsc"
         inkscape:connector-curvature="0"
         id="path3830"
         d="m 246.96429,360.26398 c -1.69762,0 -0.0171,3.08035 -5.22322,3.08035 -6.0097,0 -4.36968,-3.08035 -6.02679,-3.08035 1.6536,0 -0.005,-3.08036 6.02679,-3.08036 5.22846,0 3.52677,3.08036 5.22322,3.08036 z"
         style="fill:#8d0000;fill-opacity:1;stroke:none" />
      <path
         transform="translate(0.80357143,-2.0535714)"
         d="m 240.89593,361.73718 c 0,0.29587 -0.23985,0.53572 -0.53572,0.53572 -0.29586,0 -0.53571,-0.23985 -0.53571,-0.53572 0,-0.29586 0.23985,-0.53571 0.53571,-0.53571 0.29587,0 0.53572,0.23985 0.53572,0.53571 z"
         sodipodi:ry="0.53571427"
         sodipodi:rx="0.53571427"
         sodipodi:cy="361.73718"
         sodipodi:cx="240.36021"
         id="path3848"
         style="fill:#000000;fill-opacity:1;stroke:none"
         sodipodi:type="arc" />
    </g>
    <g
       transform="matrix(-1,0,0,1,530.35713,-0.71428576)"
       id="g3857">
      <path
         transform="matrix(1.0869565,0,0,1.0869565,-21.020963,-31.327303)"
         style="fill:#000000;fill-opacity:1;stroke:none"
         d="m 246.96429,360.26398 c -1.7473,0 0.0231,3.08035 -5.22322,3.08035 -6.10881,0 -3.9072,-3.08035 -6.12679,-3.08035 2.21886,0 0.0385,-3.08036 6.12679,-3.08036 5.22578,0 3.47585,3.08036 5.22322,3.08036 z"
         id="path3859"
         inkscape:connector-curvature="0"
         sodipodi:nodetypes="cscsc" />
      <path
         style="fill:#8d0000;fill-opacity:1;stroke:none"
         d="m 246.96429,360.26398 c -1.69762,0 -0.0171,3.08035 -5.22322,3.08035 -6.0097,0 -4.36968,-3.08035 -6.02679,-3.08035 1.6536,0 -0.005,-3.08036 6.02679,-3.08036 5.22846,0 3.52677,3.08036 5.22322,3.08036 z"
         id="path3861"
         inkscape:connector-curvature="0"
         sodipodi:nodetypes="cscsc" />
      <path
         sodipodi:type="arc"
         style="fill:#000000;fill-opacity:1;stroke:none"
         id="path3863"
         sodipodi:cx="240.36021"
         sodipodi:cy="361.73718"
         sodipodi:rx="0.53571427"
         sodipodi:ry="0.53571427"
         d="m 240.89593,361.73718 c 0,0.29587 -0.23985,0.53572 -0.53572,0.53572 -0.29586,0 -0.53571,-0.23985 -0.53571,-0.53572 0,-0.29586 0.23985,-0.53571 0.53571,-0.53571 0.29587,0 0.53572,0.23985 0.53572,0.53571 z"
         transform="translate(0.80357143,-2.0535714)" />
    </g>
  </g>
</svg>
