<?xml version="1.0" encoding="UTF-8" standalone="no"?>
<svg xmlns="http://www.w3.org/2000/svg" version="1.1" width="100" height="100">
<path d="m -131.72585 645.21336 c -6.44264 -2.49235 -11.75428 -4.56853 -11.80365 -4.61374 -0.0494 -0.0452 3.31589 -3.48871 7.47835 -7.65222 l 7.56811 -7.57002 -1.50265 -1.5276 c -0.82646 -0.84018 -1.66229 -1.83767 -1.85741 -2.21665 -0.46851 -0.91 -0.46721 -2.63786 0.003 -3.5437 0.19659 -0.37898 2.81185 -3.16964 5.8117 -6.20147 l 5.45428 -5.51243 6.54972 -14.68828 6.54972 -14.68828 12.631267 -12.59572 c 11.01591 -10.98492 12.737304 -12.62572 13.460431 -12.83026 0.456041 -0.129 1.05404 -0.1877 1.328888 -0.13046 0.274845 0.0572 0.719578 0.14966 0.988291 0.20536 0.615999 0.1277 1.802865 1.15902 2.185622 1.89919 0.35842 0.69311 0.409016 2.42134 0.09405 3.21257 -0.128418 0.3226 -2.396656 2.7609 -5.04053 5.41846 l -4.807044 4.83192 16.485994 16.48512 16.485998 16.48512 2.06517 -2.08931 c 1.135854 -1.14913 2.350261 -2.21293 2.698705 -2.36401 1.365034 -0.5919 3.516552 -0.18406 4.412203 0.83637 0.965225 1.09969 1.229388 2.77756 0.65523 4.16159 -0.414338 0.99876 -19.353251 19.97804 -20.466373 20.51 -0.433119 0.20698 -7.16615 3.22289 -14.962291 6.70202 l -14.174802 6.32568 -5.61086 5.58437 c -3.850231 3.83206 -5.796181 5.63338 -6.201471 5.74053 -0.96951 0.25633 -2.31713 0.15771 -3.05152 -0.22332 -0.37898 -0.19663 -1.37867 -1.02736 -2.22154 -1.84605 l -1.5325 -1.48855 -3.97993 3.95766 -3.97993 3.95766 -11.7139 -4.53155 z m 29.61989 -13.30766 c 2.587016 -2.56044 4.645459 -4.43639 5.095251 -4.64352 0.415074 -0.19115 5.995726 -2.69134 12.401451 -5.55597 6.405723 -2.86464 11.711784 -5.27345 11.791246 -5.35291 0.07946 -0.0795 -6.671458 -6.95998 -15.00204 -15.29004 -8.330585 -8.33006 -15.183226 -15.10506 -15.228086 -15.05556 -0.0449 0.0495 -2.49338 5.49413 -5.44115 12.0992 -2.94778 6.60506 -5.5424 12.31928 -5.76584 12.69826 -0.22344 0.37898 -2.27301 2.5728 -4.5546 4.87517 l -4.14835 4.18612 8.16583 8.16761 c 4.49121 4.49219 8.20631 8.16762 8.25578 8.16762 0.0495 0 2.0432 -1.93319 4.43051 -4.29598 z m 39.68019 -23.16875 3.244961 -3.24944 -16.486565 -16.48656 -16.486563 -16.48656 -3.297316 3.29731 -3.297316 3.29732 16.437802 16.43868 c 9.04079 9.04128 16.483304 16.43869 16.538919 16.43869 0.05561 0 1.561348 -1.46225 3.346078 -3.24944 z" id="path2996" transform="translate(143.53004 -550.58275)"/>
</svg>
